<?xml version="1.0" encoding="UTF-8"?>
<svg id="Layer_2" data-name="Layer 2" xmlns="http://www.w3.org/2000/svg" viewBox="0 0 346.21 80">
  <defs>
    <style>
      .cls-1 {
        fill: #bbdd08;
      }
    </style>
  </defs>
  <g id="Layer_1-2" data-name="Layer 1">
    <g>
      <path class="cls-1" d="M39.26,24.76l-15.06.09h-.57s0-17.48,0-17.48h9.46c.46,0,.83-.37.83-.83V.83c0-.46-.37-.83-.83-.83H6.14c-.46,0-.83.37-.83.83v5.71c0,.46.37.83.83.83h10.11v17.53h-.16s-15.11.09-15.11.09c-.58,0-1.05.69-.98,1.48.57,6.57,2.71,35.08,18.21,52.64,1.09,1.24,2.89,1.16,4-.07,1.49-1.65,11.48-12.22,16.11-38.5.11-.65-.38-1.25-1.04-1.25h-17.46c-.59,0-1.06.47-1.06,1.06v5.05c0,.74.44,1.34.99,1.34h9.12c.52,0,.64.08.46.93-2.41,11.72-6.07,17.06-8.13,20.03-.77,1.11-1.2,1.47-2.01.4-6.42-8.39-9.9-29.95-9.67-34.24.04-.79.03-1.35.61-1.36l5.96.07h22.63c.48,0,.9-.74.98-1.39.19-1.59.37-3.23.53-4.91.08-.81-.38-1.52-.98-1.52Z"/>
      <path class="cls-1" d="M78.07,53.24c-.66.11-1.31.2-1.95.26-.65.06-1.26.09-1.84.09-2.12,0-4.04-.28-5.76-.83-1.72-.55-3.2-1.4-4.42-2.55-1.22-1.15-2.17-2.6-2.83-4.36-.66-1.76-1-3.83-1-6.21s.36-4.51,1.08-6.31c.72-1.81,1.7-3.32,2.94-4.54,1.24-1.22,2.71-2.14,4.4-2.75,1.69-.61,3.5-.92,5.45-.92,1.26,0,2.51.12,3.75.35,1.24.23,2.39.52,3.44.87v-3.73c-.4-.17-.87-.34-1.43-.49s-1.15-.29-1.8-.4c-.65-.11-1.33-.2-2.04-.26-.71-.06-1.43-.09-2.15-.09-2.75,0-5.22.45-7.43,1.36-2.2.91-4.08,2.17-5.62,3.8-1.55,1.62-2.73,3.57-3.55,5.83-.82,2.26-1.23,4.75-1.23,7.44s.39,5.21,1.17,7.38c.78,2.17,1.92,4.01,3.43,5.51,1.51,1.51,3.38,2.66,5.61,3.46,2.23.8,4.79,1.21,7.67,1.21,1.42,0,2.8-.11,4.15-.32s2.53-.52,3.55-.92v-3.73c-.49.17-1.04.33-1.67.48-.62.15-1.26.28-1.92.39Z"/>
      <rect class="cls-1" x="86.77" y="32.07" width="4.02" height="24.63"/>
      <rect class="cls-1" x="86.66" y="21.85" width="4.02" height="4.49"/>
      <path class="cls-1" d="M107.69,53.85c-.78,0-1.44-.1-2-.3-.55-.2-1.01-.48-1.36-.83-.35-.35-.61-.77-.78-1.26-.17-.48-.25-1.01-.25-1.58v-14.37h7.36v-3.45h-7.36v-6.74h-4.02v6.74h-4.74v3.45h4.74v14.99c0,1.04.16,1.98.47,2.83.31.85.78,1.57,1.41,2.17.63.6,1.42,1.05,2.37,1.37.95.32,2.07.48,3.37.48.98-.02,1.83-.09,2.54-.21.71-.12,1.23-.25,1.58-.39v-3.37c-.5.14-1.05.25-1.65.34-.6.09-1.16.13-1.7.13Z"/>
      <polygon class="cls-1" points="125.47 51.38 125.31 51.38 117.67 32.07 113.65 32.07 123.36 56.21 118.1 68.76 122.09 68.76 137.34 32.07 133.32 32.07 125.47 51.38"/>
      <path class="cls-1" d="M168.13,42.67h7.91v10.32c-.75.19-1.62.34-2.59.44-.97.1-1.96.16-2.96.16-2.15,0-4.11-.27-5.87-.82s-3.26-1.39-4.49-2.53c-1.24-1.14-2.19-2.58-2.86-4.33-.67-1.75-1.01-3.82-1.01-6.22s.41-4.59,1.22-6.42c.81-1.82,1.9-3.34,3.27-4.55,1.37-1.21,2.94-2.11,4.73-2.71,1.79-.6,3.67-.89,5.64-.89,1.35,0,2.7.12,4.04.35,1.35.23,2.54.52,3.58.87v-3.74c-.4-.17-.89-.34-1.48-.49-.59-.15-1.23-.29-1.92-.4-.69-.11-1.42-.2-2.18-.26-.76-.06-1.52-.09-2.28-.09-2.82,0-5.4.45-7.74,1.33-2.34.89-4.34,2.16-5.99,3.8-1.65,1.64-2.91,3.62-3.78,5.94-.87,2.32-1.31,4.89-1.31,7.73,0,2.61.4,4.98,1.19,7.11.8,2.13,1.96,3.93,3.5,5.42,1.54,1.49,3.44,2.64,5.72,3.45,2.27.81,4.9,1.22,7.87,1.22,1,0,2.02-.05,3.05-.16,1.03-.1,1.99-.24,2.89-.42.9-.17,1.7-.36,2.4-.56.7-.2,1.23-.39,1.59-.58v-16.78h-12.13v3.81Z"/>
      <path class="cls-1" d="M204.58,36.24c-.69-1.45-1.83-2.62-3.41-3.5-1.58-.88-3.62-1.32-6.1-1.32-.69,0-1.38.03-2.07.1-.69.07-1.35.17-1.97.3-.62.13-1.22.28-1.78.47-.56.18-1.05.38-1.46.58v3.37c1.09-.42,2.18-.74,3.28-.97,1.1-.23,2.27-.35,3.51-.35,1.68,0,3.01.27,3.99.82.98.54,1.7,1.23,2.15,2.06.21.4.35.86.44,1.38.09.52.13,1.11.13,1.79v1.71h-.1c-.85-.31-1.81-.57-2.9-.78-1.09-.21-2.27-.32-3.55-.34-1.35,0-2.58.18-3.69.54-1.11.36-2.07.88-2.86,1.56-.8.68-1.41,1.5-1.85,2.46-.44.97-.66,2.06-.66,3.29s.2,2.36.6,3.35c.4.98.96,1.82,1.67,2.5.72.68,1.57,1.2,2.57,1.56.99.35,2.09.53,3.28.53.88,0,1.71-.09,2.49-.28.78-.19,1.49-.45,2.15-.77s1.24-.68,1.74-1.09c.5-.4.92-.82,1.24-1.23h.1l.44,2.72h3.37v-16.44c0-.8-.06-1.53-.17-2.19-.11-.67-.3-1.27-.56-1.83ZM201.29,50.81c-.19.19-.49.46-.89.8-.4.35-.9.69-1.47,1.04-.58.35-1.23.64-1.97.89-.74.25-1.54.38-2.4.38-.65,0-1.27-.09-1.84-.27-.58-.18-1.08-.46-1.5-.83-.42-.37-.75-.84-.99-1.41-.24-.57-.36-1.24-.36-2,0-1.51.48-2.62,1.44-3.34.96-.73,2.3-1.09,4-1.09,1.22.02,2.34.12,3.35.31,1.02.19,1.89.39,2.63.6v4.93Z"/>
      <path class="cls-1" d="M224.27,31.42c-.95,0-1.86.12-2.72.35-.86.23-1.66.56-2.39.97-.73.41-1.38.9-1.96,1.45-.58.55-1.07,1.15-1.46,1.79h-.08l-.78-3.91h-3.11v24.63h4.02v-17.17c.43-.71.97-1.32,1.62-1.84.65-.52,1.37-.95,2.18-1.31.8-.35,1.66-.62,2.58-.79.92-.17,1.85-.26,2.8-.26h.31v-3.86c-.14-.02-.3-.03-.48-.04-.18,0-.36-.01-.53-.01Z"/>
      <path class="cls-1" d="M244.88,34.37h-.08c-.88-.97-1.88-1.7-2.98-2.2-1.11-.5-2.41-.75-3.91-.75-.73,0-1.5.09-2.32.27-.82.18-1.63.48-2.42.89-.8.41-1.56.96-2.31,1.62-.74.67-1.39,1.49-1.94,2.48-.55.99-1,2.14-1.33,3.46-.34,1.32-.5,2.84-.5,4.55,0,2.3.31,4.25.93,5.85.62,1.6,1.44,2.91,2.45,3.92,1.01,1.01,2.16,1.75,3.46,2.2,1.3.46,2.62.69,3.97.69.97,0,1.82-.1,2.55-.3.73-.2,1.38-.46,1.94-.79.56-.33,1.05-.7,1.47-1.1.41-.41.78-.81,1.09-1.21h.1l.83,2.75h3.03V19.15h-4.02v15.22ZM244.88,50.56c-.23.33-.53.69-.92,1.08-.39.39-.85.76-1.4,1.1-.54.34-1.16.63-1.85.86-.69.22-1.46.34-2.31.34-1.14,0-2.15-.22-3.03-.65-.88-.43-1.62-1.05-2.23-1.85s-1.07-1.78-1.39-2.93c-.32-1.15-.48-2.43-.48-3.85,0-1.95.23-3.56.7-4.81.47-1.25,1.06-2.25,1.78-2.99.72-.74,1.49-1.26,2.33-1.54.84-.28,1.64-.43,2.4-.43,1.26,0,2.44.26,3.52.77,1.09.51,2.05,1.19,2.88,2.04v12.89Z"/>
      <path class="cls-1" d="M272.5,34.27c-.88-.99-1.92-1.71-3.12-2.16-1.2-.46-2.49-.69-3.87-.69-1.47,0-2.87.28-4.22.83-1.34.55-2.53,1.38-3.57,2.49-1.03,1.11-1.86,2.48-2.48,4.14-.62,1.65-.93,3.6-.93,5.85s.32,4.23.96,5.85c.64,1.62,1.53,2.93,2.66,3.93,1.13,1,2.47,1.73,4.02,2.18,1.55.45,3.2.67,4.96.67,1.49,0,2.88-.13,4.17-.38,1.3-.25,2.39-.59,3.27-1.02v-3.35c-1.09.4-2.18.71-3.28.92-1.1.22-2.31.32-3.64.32s-2.47-.15-3.58-.47c-1.11-.31-2.07-.81-2.89-1.49-.82-.68-1.47-1.57-1.94-2.67-.48-1.1-.71-2.43-.71-4.01h17c.02-.52.03-.85.03-1v-.53c0-2.18-.25-4.04-.76-5.6-.51-1.56-1.2-2.83-2.08-3.81ZM258.52,41.76c.09-.95.31-1.84.68-2.68.37-.84.85-1.57,1.44-2.19.59-.62,1.29-1.11,2.09-1.48.8-.36,1.66-.54,2.58-.54s1.78.18,2.49.53c.72.35,1.32.84,1.81,1.46.49.62.86,1.35,1.12,2.19.25.84.38,1.74.38,2.71h-12.6Z"/>
      <path class="cls-1" d="M298.64,33.39c-.73-.69-1.58-1.19-2.56-1.5-.99-.31-2.04-.47-3.16-.47-.95,0-1.83.1-2.63.31-.8.21-1.54.5-2.22.87-.67.37-1.28.8-1.83,1.3-.54.49-1.04,1.02-1.49,1.59h-.08l-.78-3.42h-3.11v24.63h4.02v-17.5c.93-1.35,2.05-2.41,3.34-3.18,1.3-.77,2.63-1.15,4.02-1.15,1.57,0,2.77.47,3.59,1.4.82.93,1.23,2.46,1.23,4.59v15.84h4.02v-16.49c0-1.62-.21-2.99-.64-4.11-.42-1.11-1-2.02-1.72-2.71Z"/>
      <path class="cls-1" d="M324.42,34.27c-.88-.99-1.92-1.71-3.12-2.16-1.2-.46-2.49-.69-3.87-.69-1.46,0-2.87.28-4.21.83-1.34.55-2.53,1.38-3.57,2.49-1.03,1.11-1.86,2.48-2.48,4.14-.62,1.65-.93,3.6-.93,5.85s.32,4.23.96,5.85c.64,1.62,1.53,2.93,2.66,3.93,1.13,1,2.47,1.73,4.02,2.18,1.55.45,3.2.67,4.96.67,1.49,0,2.88-.13,4.17-.38,1.3-.25,2.39-.59,3.27-1.02v-3.35c-1.09.4-2.18.71-3.28.92-1.1.22-2.31.32-3.64.32s-2.47-.15-3.58-.47c-1.11-.31-2.07-.81-2.89-1.49-.82-.68-1.47-1.57-1.94-2.67-.48-1.1-.71-2.43-.71-4.01h17c.02-.52.03-.85.03-1v-.53c0-2.18-.26-4.04-.76-5.6-.51-1.56-1.2-2.83-2.08-3.81ZM310.44,41.76c.09-.95.31-1.84.68-2.68.37-.84.85-1.57,1.44-2.19.59-.62,1.29-1.11,2.09-1.48.8-.36,1.66-.54,2.58-.54s1.78.18,2.49.53c.72.35,1.32.84,1.81,1.46.49.62.86,1.35,1.12,2.19.25.84.38,1.74.38,2.71h-12.6Z"/>
      <path class="cls-1" d="M345.73,31.43c-.18,0-.36-.01-.53-.01-.95,0-1.86.12-2.72.35-.86.23-1.66.56-2.39.97-.72.41-1.38.9-1.96,1.45-.58.55-1.07,1.15-1.46,1.79h-.08l-.78-3.91h-3.11v24.63h4.02v-17.17c.43-.71.97-1.32,1.62-1.84.65-.52,1.37-.95,2.18-1.31.8-.35,1.66-.62,2.58-.79.92-.17,1.85-.26,2.8-.26h.31v-3.86c-.14-.02-.3-.03-.48-.04Z"/>
    </g>
  </g>
</svg>