<?xml version="1.0" encoding="UTF-8"?>
<svg id="Layer_2" data-name="Layer 2" xmlns="http://www.w3.org/2000/svg" viewBox="0 0 38.06 38.06">
  <defs>
    <style>
      .cls-1 {
        fill: #fff;
      }
    </style>
  </defs>
  <g id="Layer_1-2" data-name="Layer 1">
    <path class="cls-1" d="M22.75,19.03c0-2.06-1.67-3.72-3.72-3.72s-3.72,1.67-3.72,3.72,1.67,3.72,3.72,3.72,3.72-1.67,3.72-3.72M27.46,13.07c0,.74-.6,1.34-1.34,1.34s-1.34-.6-1.34-1.34.6-1.34,1.34-1.34,1.34.6,1.34,1.34M24.77,19.03c0,3.17-2.57,5.74-5.74,5.74s-5.74-2.57-5.74-5.74,2.57-5.74,5.74-5.74,5.74,2.57,5.74,5.74M28.12,23.54c.05-1.18.07-1.53.07-4.51s-.01-3.34-.07-4.51c-.05-1.09-.23-1.68-.38-2.07-.2-.52-.45-.89-.84-1.28-.39-.39-.76-.63-1.29-.84-.39-.15-.98-.34-2.07-.39-1.18-.05-1.53-.06-4.51-.06s-3.34.01-4.51.06c-1.09.05-1.68.23-2.07.39-.52.2-.89.45-1.28.84-.39.39-.63.76-.84,1.28-.15.39-.33.98-.38,2.07-.05,1.18-.07,1.53-.07,4.51s.01,3.34.07,4.51c.05,1.09.23,1.68.38,2.08.2.52.44.89.84,1.28s.76.63,1.28.84c.39.15.99.34,2.07.38,1.18.05,1.53.07,4.51.07s3.34-.01,4.51-.07c1.09-.05,1.68-.23,2.07-.38.52-.2.89-.44,1.29-.84.39-.39.63-.76.84-1.28.15-.39.33-.99.38-2.08M30.2,19.03c0,3.03-.01,3.41-.07,4.61-.05,1.19-.24,2-.52,2.71-.28.73-.67,1.36-1.29,1.98-.62.62-1.24,1-1.98,1.29-.71.28-1.52.47-2.71.52-1.19.05-1.57.07-4.61.07s-3.41-.01-4.61-.07c-1.19-.05-2-.24-2.71-.52-.74-.29-1.36-.67-1.98-1.29-.62-.62-1-1.24-1.29-1.98-.28-.71-.47-1.52-.52-2.71-.05-1.19-.07-1.57-.07-4.61s.01-3.41.07-4.6c.06-1.19.24-2,.52-2.71.28-.74.67-1.36,1.29-1.98.62-.62,1.24-1,1.98-1.29.71-.28,1.52-.47,2.71-.52,1.19-.06,1.57-.07,4.61-.07s3.41.01,4.61.07c1.19.05,2,.24,2.71.52.74.28,1.36.67,1.98,1.29.62.62,1,1.24,1.29,1.98.28.71.47,1.52.52,2.71.06,1.19.07,1.57.07,4.6M38.06,19.03C38.06,8.52,29.54,0,19.03,0S0,8.52,0,19.03s8.52,19.03,19.03,19.03,19.03-8.52,19.03-19.03"/>
  </g>
</svg>