<?xml version="1.0" encoding="UTF-8"?>
<svg id="Layer_2" data-name="Layer 2" xmlns="http://www.w3.org/2000/svg" viewBox="0 0 1600 422.68">
  <defs>
    <style>
      .cls-1 {
        fill: #096a73;
      }
    </style>
  </defs>
  <g id="Layer_1-2" data-name="Layer 1">
    <path class="cls-1" d="M1600,371.54c-1.39-.35-2.81-.59-4.3-.59-8.13,0-14.95,5.51-16.99,12.98-3.11-2.76-7.2-4.45-11.69-4.45-7.22,0-13.41,4.34-16.14,10.55h-2.33s-2.37-4.11-2.37-4.11l.02-13.4-3.47-11.68-4.1,11.86-.02,8.8-5.81-8.62h-6.99s-3.87-10.73-3.87-10.73l-2.35,11.1-40.77-.06-5.42-10.15-3.5,3.06-18.06-.03.08-51.82h-5.1s0,4.42,0,4.42h-5.41s0-4.17,0-4.17h-3.3s0,4.11,0,4.11h-6.6s0-4.03,0-4.03h-7.64s0,3.77,0,3.77h-6.09s0-3.33,0-3.33h-4.3s0,3.25,0,3.25h-7.84s0-3.17,0-3.17h-3.28s-.09,59.27-.09,59.27l-42.23-.06.04-26.22-33.49-.05-.05,30.38-1.36,1.34v9.39s-31.51-.13-31.51-.13c-4.04-5.42-10.49-8.95-17.77-8.95-5.49,0-10.5,2-14.37,5.3-3.84-10.85-14.16-18.64-26.33-18.64-13.37,0-24.54,9.4-27.29,21.94l-10.96-.04c-3.54-2.12-7.96-2.13-11.53-.05l-4.51-.02c-3.92-6.27-10.86-10.46-18.81-10.46-5.65,0-10.78,2.13-14.7,5.6-4.9-8.07-13.75-13.49-23.89-13.49-11.68,0-21.68,7.18-25.86,17.36-.03-.03-.05-.07-.08-.1-4.11-4.11-10.57-4.36-15.03-.84l.09-58.79-2.04-1.77.03-18.8h-2.33s-7.49-54.56-7.49-54.56l-5.62,53.67h-4.66S1023.49,0,1023.49,0l-20.68,253.64-3.31,4.2v4.59s-3.12,5.35-3.12,5.35l-.03,21.62-1.94,1.15-.03,18.56h-6.41s-6.51-54.95-6.51-54.95l-5.32,50.13h-2.14s.03-23.35.03-23.35l-2.33-1.15v-5.17s-4.64-3.83-4.64-3.83l-1.14-14.16-1.38,14.16-4.86,4.59v4.4s-1.95,1.15-1.95,1.15l-.04,26.34h-5.95s-.02,10.68-.02,10.68l-2.28,1.81-.1,66.58c-3.66-5.05-9.6-8.35-16.32-8.35-7.21,0-13.52,3.8-17.08,9.49l-29.9-.12c-2.88-1.36-6.08-2.15-9.48-2.15s-6.49.76-9.32,2.08l-7.92-.03c-5.13-6.07-12.78-9.93-21.35-9.93s-16.07,3.79-21.19,9.76l-4.08-.02c-4.06-4.58-9.97-7.48-16.58-7.48-2.88,0-5.62.57-8.14,1.56-2.31-1.11-4.89-1.75-7.62-1.75-1.12,0-2.2.12-3.26.31-5.04-4.95-11.95-8.01-19.57-8.01-10.78,0-20.12,6.11-24.78,15.05l-4.4-.02c-3.01-1.4-6.49-1.42-9.51-.04h-1.94c-2.07-7.45-8.88-12.92-16.98-12.92-6.58,0-12.3,3.61-15.34,8.95-5.02.04-9.72,1.42-13.77,3.78l-18.05-.07c-.65-9.15-8.26-16.38-17.57-16.38-8.12,0-14.95,5.51-16.99,12.98-3.11-2.76-7.2-4.46-11.69-4.46-5.79,0-10.91,2.8-14.12,7.11l-.22-.06-5.96-9.24c-3.77-9.86-13.43-9.1-13.43-9.1l-30.39-.05.02-11.45-1.49-1.65v-8.29s-2.49-2.09-2.49-2.09l-2.52,2.29v8.36s-8.53-.01-8.53-.01l.02-9.69-2.51-1.22v-8.18s-2.27-3.66-2.27-3.66v-7.39s-.66-.85-.66-.85l-1.88-8.61-1.18,8.61-.73,1v7.25s-2.42,3.87-2.42,3.87v8.11s-2.78,1.65-2.78,1.65v9.04s-6.78-.01-6.78-.01l.02-11.91-3.27-2.95-2.79,3.13-.02,11.58-.68,1.43v2.68s-1.56,3.06-1.56,3.06l-.02,11.2c-2.76-1.79-6.04-2.84-9.57-2.84-5.94,0-11.18,2.94-14.37,7.44-3.33-2.01-7.22-3.18-11.4-3.18-7.7,0-14.47,3.92-18.45,9.88h-8.45c-3.22-3.42-7.76-5.55-12.81-5.55s-9.56,2.12-12.77,5.5h-1.3c-.33-.45-.66-.9-1.06-1.3-4.44-4.44-11.63-4.44-16.07,0-.45.45-.83.95-1.19,1.45l-6.79.08c-3.55-2.42-7.84-3.83-12.46-3.83s-9.24,1.54-12.88,4.14l-5.49.07c-3.16-4.76-8.56-7.89-14.7-7.89-4.58,0-8.74,1.76-11.87,4.62.52-3.44-.51-7.07-3.16-9.72-4.44-4.44-11.63-4.44-16.07,0-1.47,1.47-2.41,3.26-2.9,5.14-3.2-3.3-7.68-5.36-12.65-5.36-.62,0-1.23.03-1.83.1l-.22-11.31v-5.53s2.46-3.01,2.46-3.01v-5.11s.01-1.92.01-1.92l-12.38-.02v1.92s-9.03-.02-9.03-.02v-1.92s-12.37-.02-12.37-.02v1.92s-9.03-.05-9.03-.05v-1.92s-12.37-.02-12.37-.02v1.92s-9.03-.03-9.03-.03v-1.92s-12.37-.02-12.37-.02v1.92s-9.04.01-9.04.01v-1.92s-12.37-.02-12.37-.02v1.92s-9.03-.02-9.03-.02v-1.92s-12.37-.02-12.37-.02v1.92s-9.03-.02-9.03-.02v-1.92s-12.37-.02-12.37-.02v1.92s-9.32-.01-9.32-.01v-1.92s-5.33,0-5.33,0h-3.2s0,2.36,0,2.36l.72,1.44-.15,4.88,1.45,1.87-.03,18.41c-2.04-1.82-4.72-2.94-7.66-2.94-5.06,0-9.34,3.26-10.89,7.79-1.19-1.67-3.13-2.77-5.33-2.77-3.62,0-6.56,2.94-6.56,6.56,0,.39.05.76.11,1.13-3.23-3.85-8.08-6.31-13.51-6.31-1.94,0-3.81.33-5.56.91-3.03-5.33-8.76-8.94-15.33-8.94-8.99,0-16.39,6.73-17.48,15.42h-1.74c-.34-2.34-1.37-4.6-3.17-6.39-4.44-4.44-11.63-4.44-16.07,0-.03.03-.04.06-.07.08-3.4-6.34-10.08-10.65-17.77-10.65-9.88,0-13.28,7.42-13.93,16.87h-.23s0,38.75,0,38.75l1600,.11v-51.15Z"/>
  </g>
</svg>