<?xml version="1.0" encoding="UTF-8"?>
<svg id="Layer_2" data-name="Layer 2" xmlns="http://www.w3.org/2000/svg" xmlns:xlink="http://www.w3.org/1999/xlink" viewBox="0 0 234.64 154.15">
  <defs>
    <style>
      .cls-1 {
        fill: none;
      }

      .cls-2 {
        fill: #09737d;
      }

      .cls-3 {
        clip-path: url(#clippath);
      }
    </style>
    <clipPath id="clippath">
      <rect class="cls-1" width="234.64" height="154.15"/>
    </clipPath>
  </defs>
  <g id="Layer_1-2" data-name="Layer 1">
    <g class="cls-3">
      <path class="cls-2" d="M0,74.84h46.37v-37.42h-18.91c1.22-13.22,5.49-18.51,18.71-20.74V0C29.69.41,9.56,3.25,2.64,20.54.41,26.23,0,32.33,0,38.44v36.4ZM63.45,74.84h46.37v-37.42h-18.3c.81-12.81,5.08-18.51,18.1-20.74V.2c-25.83.81-46.16,9.56-46.16,39.05v35.59ZM171.19,112.55v-37.72h-46.37v39.65h18.3c-.81,13.58-5.08,19.61-18.1,21.98v17.46c25.83-.86,46.16-10.13,46.16-41.38M234.64,113.42v-38.58h-46.37v39.65h18.91c-1.22,14.01-5.49,19.61-18.71,21.98v17.67c16.47-.43,36.61-3.45,43.52-21.77,2.24-6.03,2.64-12.5,2.64-18.97"/>
    </g>
  </g>
</svg>